<svg width="30" height="24" viewBox="0 0 30 24" fill="none" xmlns="http://www.w3.org/2000/svg">
<path d="M5 21V10.975L2.375 12.575L1.25 11.375L5 9.1V6.25H6.875V7.95L15 3L28.75 11.4L27.625 12.575L25 10.975V21H5ZM6.875 19.5H14.0625V15.5H15.9375V19.5H23.125V9.825L15 4.875L6.875 9.825V19.5ZM5 5C5 4.23333 5.33854 3.58333 6.01562 3.05C6.69271 2.51667 7.5 2.25 8.4375 2.25C8.875 2.25 9.24479 2.125 9.54688 1.875C9.84896 1.625 10 1.33333 10 1H11.875C11.875 1.75 11.5417 2.39583 10.875 2.9375C10.2083 3.47917 9.39583 3.75 8.4375 3.75C8.02083 3.75 7.65625 3.87083 7.34375 4.1125C7.03125 4.35417 6.875 4.65 6.875 5H5ZM6.875 19.5H14.0625H15.9375H23.125H15H6.875Z" fill="black"/>
<path d="M14.512 15.9286V14.9786C13.8726 14.9032 13.3482 14.7392 12.9387 14.4866C12.5293 14.234 12.2348 13.9155 12.0553 13.5309L12.9976 13.2708C13.1883 13.6327 13.4632 13.9023 13.8221 14.0795C14.1811 14.2566 14.613 14.3452 15.1178 14.3452C15.6563 14.3452 16.0994 14.2548 16.4471 14.0738C16.7949 13.8928 16.9688 13.644 16.9688 13.3274C16.9688 12.9956 16.8145 12.7393 16.506 12.5583C16.1975 12.3774 15.617 12.1926 14.7644 12.0042C13.9567 11.8307 13.3538 11.6008 12.9555 11.3143C12.5573 11.0278 12.3582 10.6696 12.3582 10.2399C12.3582 9.82519 12.5573 9.47836 12.9555 9.1994C13.3538 8.92043 13.8726 8.76209 14.512 8.7244V7.78571H15.5216V8.7244C16.0265 8.76209 16.4611 8.8733 16.8257 9.05803C17.1903 9.24275 17.468 9.47836 17.6587 9.76487L16.7164 10.0363C16.5593 9.79503 16.349 9.61973 16.0853 9.51041C15.8217 9.40108 15.4768 9.34642 15.0505 9.34642C14.5345 9.34642 14.125 9.42559 13.8221 9.58392C13.5192 9.74225 13.3678 9.95713 13.3678 10.2286C13.3678 10.5151 13.5361 10.7469 13.8726 10.9241C14.2091 11.1013 14.8317 11.2841 15.7404 11.4726C16.5032 11.6309 17.0669 11.859 17.4315 12.1568C17.7961 12.4547 17.9784 12.8298 17.9784 13.2821C17.9784 13.7571 17.7708 14.1398 17.3558 14.4301C16.9407 14.7203 16.3293 14.9069 15.5216 14.9899V15.9286H14.512Z" fill="black"/>
</svg>
